<?xml version="1.0" encoding="UTF-8" standalone="no"?>
<!DOCTYPE svg PUBLIC "-//W3C//DTD SVG 1.1//EN" "http://www.w3.org/Graphics/SVG/1.1/DTD/svg11.dtd">
<svg width="100%" height="100%" viewBox="0 0 600 600" version="1.1" xmlns="http://www.w3.org/2000/svg" xmlns:xlink="http://www.w3.org/1999/xlink" xml:space="preserve" xmlns:serif="http://www.serif.com/" style="fill-rule:evenodd;clip-rule:evenodd;stroke-linejoin:round;stroke-miterlimit:2;">
    <g id="path2" transform="matrix(2.11667,0,0,2.11667,0,-1.66978e-13)">
        <rect x="0" y="0" width="283.465" height="283.465" style="fill:rgb(255,240,220);"/>
    </g>
    <g transform="matrix(1.41925,0,0,1.41925,-179.103,-81.5332)">
        <clipPath id="_clip1">
            <rect x="126.196" y="57.448" width="422.758" height="422.758"/>
        </clipPath>
        <g clip-path="url(#_clip1)">
            <g id="path18" transform="matrix(2.96567,0,0,2.96567,-111.787,-120.201)">
                <path d="M103.228,121.535C102.772,125.834 102.354,130.098 102.052,134.253C102,134.97 103.934,134.97 104.099,134.182C105.451,127.912 105.747,120.89 107.869,114.871C108.806,112.327 109.82,110.715 110.747,109.784C112.468,108.279 113.066,110.894 113.146,112.256C113.348,116.376 110.823,120.066 107.416,122.072C107.229,122.18 107.214,122.395 107.349,122.502C108.886,123.542 110.471,124.401 111.341,126.73C112.343,129.202 111.794,132.319 109.721,134.218C108.453,135.4 106.62,135.471 106.182,133.609C105.9,132.57 106.307,130.922 107.801,129.095C107.998,128.843 107.663,128.521 107.463,128.808C105.854,130.742 105.434,132.57 105.737,133.824C106.259,136.009 108.838,136.009 110.518,135.077C113.461,133.537 114.577,129.524 113.399,126.515C112.557,124.294 109.977,122.825 109.085,122.287C113.254,119.636 115.066,115.91 115.172,112.973C115.289,110.393 113.484,106.631 110.371,109.533C109.402,110.536 108.42,112.22 107.518,114.764C105.82,119.386 105.15,125.153 104.365,130.026C104.602,127.267 104.957,124.365 105.231,121.571C105.581,116.77 105.621,113.76 105.332,111.826C104.56,106.667 99.817,107.849 98.664,112.865C98.568,113.187 99.032,113.223 99.122,112.972C99.877,109.497 103.162,107.169 103.622,112.184C103.778,113.975 103.608,116.806 103.228,121.535ZM112.467,148.805C112.629,146.584 112.823,143.431 111.093,141.604C109.196,139.598 106.171,141.784 105.378,145.295C105.284,145.617 105.746,145.652 105.836,145.402C106.351,142.751 108.688,140.673 109.815,142.428C110.769,144.076 110.677,146.333 110.515,148.554C110.075,154.609 108.664,160.7 107.732,167.113C107.617,168.689 109.58,168.295 109.825,167.399C110.682,163.996 112.927,155.29 114.787,149.916C114.915,149.629 115.324,148.447 115.788,147.48C116.756,145.509 117.21,146.154 117.08,147.945C116.876,151.242 115.285,158.335 115.924,160.879C116.193,162.097 117.207,161.954 117.457,160.987C118.432,157.44 121.73,147.552 124.404,143.79C126.796,140.458 127.774,140.816 127.482,144.829C127.098,150.095 124.942,158.551 125.542,164.104C125.978,168.438 127.942,169.513 130.54,165.823C131.658,164.247 132.707,162.133 133.539,160.556C133.703,160.27 133.285,160.091 133.16,160.341C132.324,161.99 131.208,164.032 130.169,165.501C127.892,168.725 127.392,166.253 127.433,163.709C127.546,157.727 129.89,150.131 129.732,144.434C129.513,139.06 126.706,139.24 123.919,143.575C120.567,148.769 117.99,158.085 117.883,158.085C117.773,157.619 119.235,151.313 118.997,147.695C118.812,144.828 117.067,144.184 115.448,147.229C114.992,148.089 114.635,149.056 114.409,149.701C112.764,154.573 111.656,158.479 110.782,161.632C111.304,157.404 112.031,153.32 112.467,148.805ZM138.734,162.025C138.627,163.494 138.405,167.041 139.793,168.152C140.948,169.012 141.894,167.829 142.461,166.934C143.52,165.178 144.95,161.775 145.443,160.413C145.531,160.198 145.111,160.055 145.019,160.342C144.608,161.56 143.024,165.107 142.008,166.755C141.606,167.364 140.888,168.367 140.554,167.041C140.108,164.319 140.963,159.947 141.45,157.189C141.507,156.4 139.371,156.221 139.196,157.153L139.015,158.156C138.665,157.547 137.999,156.866 137.179,156.795C136.256,156.687 135.288,157.189 134.676,157.726C131.872,160.306 131.307,167.579 134.742,167.149C136.406,166.934 138.04,163.673 138.734,162.025ZM138.717,161.273C138.103,162.814 136.076,167.041 134.808,166.253C133.639,165.572 134.365,160.521 135.883,158.371C136.239,157.906 136.667,157.44 137.279,157.404C138.139,157.404 138.626,158.085 138.966,158.837C138.861,160.27 138.841,160.055 138.717,161.273ZM151.505,160.807C151.275,162.491 150.925,165.823 151.576,167.22C152.377,169.012 153.557,168.546 154.341,167.614C155.479,166.253 157.576,162.062 158.195,160.449C158.321,160.198 157.901,160.055 157.811,160.306C157.208,161.703 155.029,166.038 154.042,167.292C153.294,168.224 153.024,167.507 152.938,166.719C152.859,164.856 153.429,162.921 153.603,161.022C153.702,160.162 153.878,158.729 153.513,157.834C152.967,156.472 151.675,156.508 150.659,157.654C149.058,159.482 147.219,164.569 146.713,165.608C146.89,163.172 147.02,161.882 147.328,159.124C147.391,158.264 145.193,157.941 145.03,159.195C144.71,162.599 144.565,164.605 144.46,166.539C144.515,167.256 146.009,167.901 146.763,166.396C147.313,165.25 149.646,159.267 151.028,158.013C152.252,156.938 151.575,160.342 151.505,160.807ZM164.436,160.341C164.295,160.807 162.894,164.318 161.621,166.539C160.641,168.188 159.232,169.334 159.228,166.432C159.267,163.924 160.17,158.909 160.153,158.156C160.116,157.189 157.856,157.225 157.86,158.156C157.807,159.374 157.211,163.638 157.583,166.396C158.181,170.481 160.678,169.155 161.994,166.826C163.351,164.426 164.665,161.13 164.817,160.521C164.908,160.27 164.562,160.091 164.436,160.341ZM159.208,154.394C158.492,154.395 158.015,155.039 157.963,155.756C157.952,156.4 158.386,156.831 159.103,156.831C159.82,156.831 160.394,156.329 160.405,155.684C160.459,154.932 159.997,154.394 159.208,154.394ZM170.046,162.025C169.939,163.494 169.717,167.041 171.105,168.152C172.261,169.012 173.207,167.829 173.774,166.934C174.26,166.128 174.825,164.974 175.34,163.831C175.406,163.685 175.471,163.54 175.534,163.396L175.172,163.127C174.57,164.448 173.876,165.88 173.321,166.755C172.93,167.37 172.201,168.367 171.867,167.041C171.42,164.318 172.276,159.947 172.763,157.189C172.82,156.401 170.684,156.221 170.509,157.153L170.328,158.156C169.978,157.547 169.311,156.866 168.492,156.795C167.569,156.687 166.601,157.189 165.988,157.727C163.185,160.305 162.62,167.579 166.055,167.149C167.719,166.934 169.353,163.674 170.046,162.025ZM170.029,161.273C169.416,162.814 167.388,167.041 166.12,166.253C164.951,165.572 165.678,160.521 167.195,158.371C167.552,157.905 167.98,157.44 168.591,157.404C169.451,157.404 169.939,158.085 170.278,158.837C170.174,160.269 170.154,160.055 170.029,161.273ZM117.346,127.411C119.341,122.144 115.213,120.783 114.635,124.294C114.245,126.694 116.344,128.378 118.877,128.521C118.89,130.312 117.609,133.645 118.486,136.367C119.136,138.266 120.803,138.481 122.167,136.977C124.622,134.254 126.958,129.237 127.438,128.055C127.528,127.805 127.108,127.661 127.019,127.912C126.787,128.629 123.952,134.612 121.799,136.618C120.995,137.334 120.35,137.334 120.078,136.153C119.556,133.967 120.971,130.277 121.103,128.45C121.143,127.912 121.2,127.625 120.562,127.518C119.644,127.339 118.136,127.876 117.346,127.411ZM116.055,126.443C115.592,125.906 115.292,125.118 115.274,124.366C115.217,121.714 118.783,122.431 116.967,127.196C116.625,126.981 116.285,126.73 116.055,126.443ZM133.575,127.912C133.434,128.378 132.032,131.889 130.759,134.11C129.779,135.758 128.371,136.905 128.367,134.003C128.406,131.495 129.308,126.479 129.291,125.727C129.254,124.759 126.995,124.795 126.998,125.727C126.946,126.945 126.348,131.208 126.721,133.967C127.32,138.051 129.816,136.725 131.132,134.397C132.489,131.996 133.804,128.7 133.956,128.091C134.046,127.84 133.7,127.661 133.575,127.912ZM128.347,121.965C127.631,121.965 127.153,122.61 127.102,123.326C127.091,123.971 127.525,124.401 128.242,124.401C128.958,124.401 129.532,123.9 129.543,123.255C129.598,122.502 129.135,121.965 128.347,121.965ZM139.105,129.704C138.977,131.459 138.924,133.179 138.77,135.293C136.356,137.944 131.723,145.969 132.253,150.017C132.431,152.489 134.686,152.525 136.229,151.021C139.401,147.796 140.276,140.201 140.84,133.429C142.332,131.638 144.064,129.99 145.098,128.091C145.183,127.912 144.843,127.661 144.717,127.912C143.658,129.668 142.192,131.101 140.892,132.713C141.157,130.062 141.378,127.518 141.684,124.795C141.777,124.007 139.714,123.792 139.504,124.723L139.359,125.726C139.137,125.332 138.802,125.01 138.498,124.759C137.273,123.864 135.79,124.544 134.983,125.297C132.436,127.805 131.544,135.149 135.265,134.719C136.929,134.504 138.448,131.351 139.105,129.704ZM138.646,136.009C138.202,141.133 137.303,147.581 135.17,150.304C134.178,151.629 132.824,152.024 132.581,149.945C132.11,146.076 136.486,138.624 138.646,136.009ZM139.096,128.843C138.554,130.384 136.599,134.612 135.294,133.823C134.126,133.143 134.744,128.091 136.262,125.942C136.667,125.297 137.433,124.616 138.362,125.153C138.743,125.332 139.034,125.762 139.314,126.336C139.246,127.769 139.221,127.625 139.096,128.843ZM150.327,129.596C150.22,131.065 149.998,134.612 151.386,135.722C152.541,136.582 153.487,135.4 154.054,134.504C155.113,132.749 156.543,129.345 157.036,127.984C157.123,127.769 156.704,127.626 156.611,127.912C156.2,129.13 154.617,132.677 153.601,134.325C153.199,134.934 152.481,135.937 152.147,134.612C151.701,131.889 152.556,127.518 153.043,124.759C153.101,123.971 150.964,123.792 150.789,124.723L150.608,125.726C150.259,125.118 149.592,124.437 148.773,124.365C147.849,124.257 146.881,124.76 146.269,125.297C143.466,127.876 142.9,135.149 146.335,134.719C147.999,134.504 149.634,131.244 150.327,129.596ZM150.31,128.844C149.696,130.384 147.669,134.612 146.401,133.824C145.232,133.142 145.958,128.091 147.476,125.942C147.832,125.476 148.26,125.01 148.872,124.974C149.731,124.974 150.22,125.655 150.559,126.407C150.455,127.84 150.434,127.626 150.31,128.844ZM162.293,129.596C162.173,131.244 162.451,133.823 163.186,135.042C163.761,136.009 164.689,136.547 165.717,135.221C166.709,133.895 168.383,129.596 169.002,127.984C169.092,127.733 168.632,127.661 168.542,127.912C168.082,129.309 166.377,133.537 165.464,134.755C164.752,135.687 164.345,135.364 164.206,134.325C163.808,131.423 164.558,125.046 164.74,123.541C167.082,120.89 172.001,112.865 171.507,108.817C171.222,106.344 169.093,106.058 167.548,107.599C164.573,110.572 163.159,119.17 162.527,124.903C162.496,125.333 162.506,125.19 162.467,125.727C162.245,125.332 161.874,125.01 161.57,124.759C160.384,123.828 158.899,124.545 158.056,125.297C155.432,127.877 155.082,135.149 158.445,134.719C160.072,134.504 161.636,131.244 162.293,129.596ZM164.833,122.753C165.368,118.346 166.46,111.217 168.522,108.494C169.665,107.061 170.934,106.845 171.144,108.888C171.541,112.793 167.101,120.138 164.833,122.753ZM162.24,128.844C161.662,130.384 159.779,134.612 158.474,133.824C157.27,133.143 157.957,128.127 159.37,125.942C159.739,125.297 160.462,124.724 161.428,125.225C161.843,125.44 162.134,125.87 162.415,126.443C162.346,127.876 162.293,127.626 162.24,128.844ZM177.642,127.9C177.091,129.076 175.156,132.038 173.205,133.256C171.443,134.325 170.169,133.609 169.821,132.002C169.741,131.614 169.706,131.113 169.743,130.611C171.278,130.187 173.281,129.256 174.035,127.757C174.796,126.15 174.081,124.652 172.32,124.723C168.765,124.831 167.21,129.47 167.924,132.468C168.403,134.254 170.579,135.865 173.499,133.645C175.471,132.146 177.223,129.721 178.023,128.079C178.147,127.864 177.768,127.649 177.642,127.9ZM169.737,130.187C169.98,128.826 170.601,126.186 172.519,125.44C173.991,124.902 174.187,126.652 173.654,127.577C173.017,128.933 171.092,129.793 169.737,130.187ZM184.234,127.912C184.093,128.378 182.691,131.889 181.419,134.11C180.438,135.758 179.03,136.905 179.025,134.003C179.065,131.495 179.967,126.479 179.95,125.727C179.914,124.759 177.654,124.795 177.658,125.727C177.605,126.945 177.008,131.208 177.381,133.967C177.979,138.051 180.476,136.725 181.792,134.397C183.149,131.996 184.463,128.701 184.615,128.091C184.705,127.84 184.36,127.661 184.234,127.912ZM179.006,121.965C178.29,121.965 177.813,122.61 177.76,123.326C177.75,123.971 178.184,124.401 178.901,124.401C179.617,124.401 180.191,123.899 180.202,123.255C180.257,122.502 179.794,121.965 179.006,121.965ZM185.023,127.411C187.018,122.144 182.89,120.783 182.312,124.293C181.922,126.694 184.021,128.378 186.554,128.521C186.567,130.313 185.286,133.645 186.163,136.367C186.813,138.266 188.48,138.481 189.844,136.976C192.3,134.254 194.635,129.237 195.115,128.055C195.205,127.804 194.785,127.661 194.695,127.912C194.464,128.629 191.629,134.612 189.476,136.618C188.672,137.334 188.027,137.334 187.755,136.152C187.232,133.967 188.648,130.277 188.781,128.449C188.82,127.912 188.876,127.625 188.24,127.518C187.321,127.339 185.813,127.876 185.023,127.411ZM183.732,126.443C183.269,125.906 182.968,125.118 182.951,124.365C182.894,121.714 186.46,122.431 184.644,127.195C184.302,126.981 183.962,126.73 183.732,126.443ZM198,127.303C198.85,126.945 196.765,126.551 196.32,126.766C195.8,127.016 195.338,127.447 194.91,127.912C194.557,123.899 201.216,122.001 200.262,129.704C200.12,130.671 199.914,131.53 199.614,132.211C197.916,132.39 196.429,131.172 195.558,129.847C196.089,128.951 196.96,127.804 198,127.303ZM195.383,130.277C196.295,131.531 197.75,132.713 199.439,132.641C199.026,133.394 198.434,134.146 197.65,134.576C195.491,135.687 194.424,132.14 195.383,130.277ZM194.557,128.342C191.729,132.247 194.079,136.869 197.842,134.898C198.771,134.433 199.41,133.537 199.874,132.57C202.196,132.175 203.678,130.026 204.504,128.02C204.591,127.805 204.208,127.661 204.082,127.912C203.381,129.668 202.091,131.638 200.087,132.104C200.349,131.459 200.552,130.635 200.689,129.739C201.747,121.105 193.649,123.577 194.557,128.342Z" style="fill:url(#_Linear2);fill-rule:nonzero;"/>
            </g>
            <g id="path20" transform="matrix(2.96567,0,0,2.96567,-111.787,-120.201)">
                <path d="M102.83,129.568C102.417,129.938 101.807,130.667 101.109,131.339C100.412,132.011 99.628,132.625 98.822,133.031C98.017,133.438 97.19,133.636 96.425,133.688C95.661,133.74 94.96,133.646 94.357,133.407C93.755,133.167 93.251,132.782 92.976,132.538C92.7,132.295 92.653,132.194 92.605,132.092C93.311,131.881 94.017,131.67 94.679,131.319C95.342,130.969 95.961,130.479 96.441,129.896C96.921,129.313 97.262,128.636 97.42,128.032C97.579,127.427 97.555,126.896 97.426,126.516C97.298,126.136 97.065,125.906 96.799,125.755C96.534,125.604 96.238,125.531 95.872,125.625C95.505,125.719 95.07,125.979 94.721,126.397C94.372,126.814 94.11,127.388 93.848,127.963C93.661,127.409 93.473,126.856 93.231,126.464C92.99,126.073 92.694,125.844 92.379,125.735C92.064,125.625 91.73,125.636 91.411,125.792C91.093,125.948 90.789,126.25 90.588,126.589C90.386,126.927 90.286,127.302 90.249,127.802C90.213,128.302 90.24,128.927 90.42,129.537C90.599,130.146 90.931,130.74 91.16,131.104C91.389,131.469 91.514,131.604 91.64,131.74C91.364,131.813 91.087,131.886 90.36,131.933C89.633,131.98 88.454,132 86.756,131.865C85.057,131.73 82.839,131.438 80.885,131.302C78.932,131.167 77.242,131.188 76.003,131.391C74.765,131.594 73.976,131.979 73.357,132.406C72.737,132.834 72.286,133.302 71.998,133.907C71.709,134.511 71.582,135.25 71.585,135.855C71.588,136.459 71.72,136.927 71.932,137.235C72.144,137.542 72.436,137.688 72.533,137.568C72.63,137.448 72.533,137.063 72.447,136.672C72.361,136.282 72.286,135.886 72.3,135.469C72.315,135.052 72.42,134.615 72.631,134.214C72.843,133.813 73.161,133.448 73.603,133.105C74.045,132.761 74.609,132.438 75.301,132.245C75.992,132.052 76.809,131.99 77.769,131.964C78.729,131.938 79.833,131.948 81.103,132.031C82.373,132.115 83.81,132.271 85.036,132.386C86.262,132.5 87.277,132.573 88.207,132.61C89.136,132.646 89.98,132.646 90.583,132.58C91.186,132.515 91.548,132.383 91.909,132.252C92.023,132.436 92.136,132.619 92.31,132.825C92.483,133.031 92.717,133.261 93.136,133.511C93.556,133.76 94.161,134.032 95.008,134.198C95.855,134.365 96.944,134.427 98.048,134.073C99.152,133.719 100.271,132.948 101.091,132.24C101.911,131.532 102.432,130.886 102.812,130.385C103.192,129.885 103.431,129.531 103.444,129.36C103.456,129.188 103.242,129.198 102.83,129.568ZM92.241,131.687C92.894,131.423 93.547,131.159 94.155,130.778C94.763,130.396 95.326,129.896 95.733,129.453C96.14,129.01 96.392,128.625 96.534,128.25C96.676,127.875 96.708,127.51 96.648,127.187C96.588,126.864 96.436,126.583 96.248,126.495C96.059,126.406 95.833,126.51 95.557,126.789C95.281,127.068 94.957,127.521 94.644,128.032C94.331,128.543 94.031,129.112 93.84,129.366C93.649,129.62 93.568,129.56 93.439,129.206C93.311,128.851 93.135,128.201 92.953,127.715C92.77,127.229 92.58,126.906 92.366,126.729C92.152,126.552 91.915,126.52 91.699,126.625C91.483,126.729 91.289,126.969 91.167,127.286C91.044,127.604 90.995,128 91.069,128.482C91.143,128.963 91.342,129.531 91.558,130.08C91.774,130.628 92.007,131.157 92.241,131.687Z" style="fill:rgb(78,38,23);"/>
            </g>
            <g id="path22" transform="matrix(2.96567,0,0,2.96567,-111.787,-120.201)">
                <path d="M175.735,163.397C176.093,163.767 176.598,164.496 177.198,165.168C177.797,165.84 178.492,166.454 179.238,166.861C179.985,167.267 180.783,167.465 181.54,167.517C182.296,167.569 183.012,167.476 183.649,167.236C184.286,166.996 184.846,166.611 185.156,166.367C185.468,166.124 185.53,166.023 185.593,165.921C184.917,165.71 184.242,165.499 183.631,165.148C183.019,164.798 182.471,164.309 182.076,163.725C181.681,163.142 181.439,162.465 181.368,161.861C181.297,161.256 181.399,160.725 181.583,160.345C181.766,159.965 182.033,159.735 182.32,159.585C182.607,159.434 182.914,159.36 183.267,159.454C183.62,159.548 184.017,159.808 184.305,160.226C184.594,160.643 184.772,161.217 184.95,161.792C185.218,161.238 185.486,160.685 185.785,160.294C186.083,159.902 186.413,159.673 186.744,159.564C187.075,159.454 187.407,159.465 187.703,159.621C187.999,159.777 188.258,160.079 188.411,160.418C188.563,160.756 188.609,161.131 188.572,161.631C188.536,162.131 188.418,162.756 188.149,163.366C187.881,163.975 187.463,164.569 187.181,164.934C186.899,165.298 186.754,165.433 186.609,165.569C186.874,165.642 187.14,165.715 187.861,165.762C188.581,165.809 189.756,165.829 191.475,165.694C193.193,165.559 195.454,165.267 197.427,165.131C199.401,164.996 201.087,165.017 202.296,165.22C203.505,165.423 204.237,165.808 204.795,166.236C205.353,166.663 205.735,167.131 205.936,167.736C206.137,168.34 206.156,169.08 206.065,169.684C205.974,170.288 205.773,170.757 205.517,171.064C205.26,171.371 204.947,171.517 204.867,171.397C204.788,171.277 204.941,170.892 205.084,170.502C205.227,170.111 205.36,169.715 205.406,169.298C205.451,168.882 205.411,168.444 205.257,168.043C205.104,167.642 204.839,167.277 204.447,166.934C204.055,166.59 203.538,166.267 202.874,166.074C202.211,165.882 201.403,165.819 200.447,165.793C199.491,165.767 198.386,165.777 197.103,165.861C195.821,165.944 194.362,166.1 193.119,166.215C191.876,166.329 190.85,166.402 189.915,166.439C188.98,166.475 188.137,166.475 187.543,166.41C186.95,166.344 186.607,166.213 186.265,166.081C186.124,166.265 185.984,166.448 185.781,166.655C185.577,166.861 185.31,167.09 184.855,167.34C184.399,167.59 183.755,167.861 182.883,168.027C182.011,168.194 180.913,168.256 179.861,167.902C178.808,167.548 177.802,166.777 177.085,166.069C176.368,165.361 175.941,164.715 175.634,164.215C175.326,163.715 175.139,163.361 175.151,163.189C175.164,163.017 175.376,163.027 175.735,163.397ZM186.016,165.516C185.401,165.253 184.786,164.989 184.233,164.607C183.681,164.225 183.191,163.725 182.848,163.282C182.506,162.839 182.31,162.454 182.223,162.079C182.135,161.704 182.156,161.339 182.263,161.016C182.37,160.694 182.563,160.412 182.764,160.324C182.966,160.235 183.177,160.339 183.412,160.618C183.647,160.897 183.906,161.35 184.144,161.861C184.382,162.372 184.6,162.941 184.754,163.195C184.908,163.45 184.998,163.39 185.178,163.035C185.358,162.68 185.628,162.03 185.882,161.544C186.135,161.058 186.372,160.735 186.612,160.558C186.851,160.381 187.093,160.35 187.294,160.454C187.495,160.558 187.654,160.798 187.73,161.116C187.806,161.433 187.798,161.829 187.654,162.311C187.509,162.793 187.228,163.36 186.932,163.909C186.637,164.457 186.326,164.987 186.016,165.516Z" style="fill:rgb(97,52,35);"/>
            </g>
            <g id="Layer1000" transform="matrix(2.96567,0,0,2.96567,-111.787,-120.201)">
                <path id="path34" d="M136.426,86.417L136.433,86.56L136.471,86.834C136.547,87.219 136.713,87.594 136.923,87.945C137.14,88.308 137.404,88.648 137.669,88.954L138.144,89.465C138.199,89.526 138.282,89.609 138.378,89.701L137.238,89.776L137.018,89.539C136.719,89.194 136.419,88.81 136.171,88.394C135.913,87.963 135.709,87.495 135.611,86.998L135.583,86.761L135.561,86.7L135.558,86.638L135.543,86.342L135.567,86.265C135.578,86.232 135.557,86.275 135.559,86.25L135.57,86.124C135.586,86.004 135.613,85.881 135.648,85.762C135.683,85.644 135.726,85.529 135.777,85.426C135.861,85.257 135.953,85.108 136.06,84.972C136.166,84.836 136.286,84.713 136.427,84.594L136.598,84.461C136.781,84.331 136.976,84.224 137.18,84.142C137.375,84.063 137.585,84.006 137.808,83.972L137.87,83.952L138.412,83.925L138.493,83.955L138.494,83.949C138.49,83.946 138.489,83.943 138.496,83.944C138.658,83.955 138.932,83.975 139.226,84.077C139.37,84.127 139.496,84.186 139.609,84.25C139.715,84.31 139.817,84.382 139.916,84.46C140.117,84.617 140.284,84.796 140.419,84.962L140.567,84.752C140.627,84.676 140.683,84.608 140.752,84.534L140.868,84.413C141.04,84.237 141.246,84.097 141.466,83.991C141.693,83.881 141.946,83.805 142.193,83.764L142.281,83.753C142.305,83.75 142.267,83.775 142.3,83.761L142.371,83.731L142.844,83.708L142.956,83.722C143.098,83.733 143.243,83.754 143.381,83.784C143.519,83.814 143.656,83.855 143.783,83.905L143.98,83.99L144.166,84.087C144.293,84.158 144.409,84.238 144.519,84.329C144.627,84.418 144.724,84.512 144.819,84.615C144.947,84.755 145.059,84.917 145.149,85.089C145.239,85.263 145.31,85.448 145.355,85.635L145.378,85.767C145.381,85.782 145.371,85.77 145.368,85.768L145.404,85.859L145.423,86.251L145.403,86.322C145.395,86.348 145.409,86.352 145.407,86.403L145.399,86.543C145.363,86.891 145.281,87.209 145.169,87.512C145.058,87.812 144.923,88.087 144.778,88.358C144.697,88.505 144.581,88.695 144.461,88.876C144.355,89.039 144.242,89.202 144.148,89.327L142.973,89.403C143.059,89.301 143.143,89.198 143.224,89.094L143.403,88.858C143.492,88.743 143.614,88.57 143.728,88.395C143.841,88.225 143.944,88.058 144.005,87.945C144.14,87.691 144.261,87.446 144.348,87.208C144.434,86.972 144.498,86.729 144.526,86.467L144.541,86.188L144.533,86.014L144.503,85.839C144.474,85.721 144.429,85.604 144.374,85.497C144.317,85.39 144.249,85.29 144.172,85.206C144.101,85.129 144.033,85.062 143.965,85.007C143.897,84.952 143.822,84.9 143.733,84.85L143.604,84.782L143.463,84.721C143.381,84.689 143.29,84.662 143.195,84.641C143.096,84.619 142.995,84.604 142.902,84.598L142.861,84.596C142.799,84.606 142.739,84.61 142.681,84.594L142.537,84.601L142.318,84.631C142.16,84.659 141.996,84.71 141.845,84.783C141.711,84.847 141.591,84.927 141.501,85.019L141.266,85.28L141.142,85.458C141.067,85.568 141.013,85.668 140.953,85.781L140.903,85.878C140.875,85.934 140.846,85.995 140.793,86.057L140.493,86.411L140.158,86.093C140.106,86.044 140.068,85.987 140.015,85.905C139.905,85.735 139.678,85.385 139.377,85.147C139.319,85.102 139.254,85.057 139.176,85.013C139.105,84.972 139.027,84.936 138.94,84.906C138.75,84.84 138.552,84.826 138.436,84.818L138.318,84.808C138.192,84.814 138.077,84.815 137.954,84.836C137.801,84.858 137.652,84.899 137.508,84.957C137.368,85.012 137.234,85.087 137.104,85.178L136.987,85.269C136.895,85.347 136.818,85.427 136.752,85.511C136.684,85.598 136.623,85.697 136.565,85.814C136.535,85.876 136.509,85.944 136.489,86.012C136.469,86.08 136.453,86.153 136.442,86.225L136.426,86.417ZM138.496,83.956C138.525,83.967 138.505,83.957 138.495,83.95L138.496,83.956Z" style="fill:rgb(117,70,36);"/>
                <path d="M154.636,101.208L154.636,101.208C154.086,93.901 147.717,88.423 140.41,88.974C133.104,89.523 127.626,95.892 128.176,103.199C128.232,103.935 128.347,104.653 128.515,105.347L128.572,105.581L154.592,103.704L154.615,103.466C154.684,102.727 154.693,101.972 154.636,101.208ZM154.071,101.25C154.119,101.9 154.118,102.543 154.07,103.174C154.07,103.174 129.012,104.98 129.012,104.98C128.88,104.388 128.788,103.779 128.742,103.157L128.742,103.157C128.215,96.162 133.458,90.065 140.453,89.539L140.453,89.539C147.448,89.012 153.544,94.256 154.071,101.25L154.071,101.25Z" style="fill:rgb(117,70,36);"/>
                <path id="path38" d="M131.004,104.885C131.058,104.954 131.095,105.032 131.113,105.113L129.79,105.209L128.179,103.159C127.982,102.908 128.026,102.546 128.277,102.349C128.527,102.152 128.89,102.195 129.087,102.446L131.004,104.885Z" style="fill:rgb(86,41,30);"/>
                <path id="path40" d="M129.229,101.119C129.191,101.436 128.903,101.662 128.587,101.623C128.271,101.586 128.045,101.298 128.083,100.982L128.452,97.901C128.49,97.585 128.777,97.359 129.094,97.397C129.41,97.435 129.636,97.722 129.598,98.039L129.229,101.119Z" style="fill:rgb(86,41,30);"/>
                <path id="path42" d="M133.84,103.833C134.138,103.946 134.289,104.278 134.177,104.576C134.114,104.743 133.983,104.863 133.827,104.917L133.525,104.939C133.495,104.933 133.464,104.924 133.433,104.913L130.53,103.82C130.232,103.708 130.081,103.375 130.193,103.077C130.305,102.779 130.638,102.628 130.936,102.741L133.84,103.833Z" style="fill:rgb(86,41,30);"/>
                <path id="path44" d="M133.063,101.728C133.362,101.84 133.512,102.173 133.4,102.471C133.288,102.769 132.955,102.92 132.657,102.808L129.753,101.715C129.455,101.603 129.304,101.27 129.416,100.972C129.529,100.673 129.861,100.523 130.159,100.635L133.063,101.728Z" style="fill:rgb(86,41,30);"/>
                <path id="path46" d="M130.891,99.622C130.903,99.941 130.655,100.209 130.337,100.222C130.019,100.235 129.75,99.987 129.737,99.668L129.614,96.568C129.602,96.25 129.85,95.981 130.168,95.969C130.487,95.956 130.755,96.204 130.768,96.522L130.891,99.622Z" style="fill:rgb(86,41,30);"/>
                <path id="path48" d="M130.918,95.458C130.719,95.706 130.356,95.747 130.107,95.548C129.859,95.349 129.818,94.986 130.017,94.737L131.955,92.314C132.154,92.065 132.517,92.024 132.766,92.223C133.015,92.422 133.055,92.785 132.856,93.034L130.918,95.458Z" style="fill:rgb(86,41,30);"/>
                <path id="path50" d="M138.049,104.011C138.292,104.102 138.437,104.34 138.421,104.586L136.642,104.715L134.738,103.998C134.44,103.886 134.289,103.553 134.401,103.255C134.514,102.957 134.846,102.806 135.144,102.918L138.049,104.011Z" style="fill:rgb(86,41,30);"/>
                <path id="path52" d="M135.005,101.626C135.202,101.876 135.159,102.239 134.908,102.436C134.658,102.633 134.295,102.589 134.098,102.339L132.181,99.9C131.984,99.649 132.027,99.286 132.278,99.09C132.529,98.892 132.891,98.936 133.088,99.187L135.005,101.626Z" style="fill:rgb(86,41,30);"/>
                <path id="path54" d="M132.642,97.854C132.557,98.161 132.239,98.342 131.932,98.257C131.625,98.172 131.444,97.855 131.529,97.547L132.353,94.556C132.437,94.249 132.755,94.068 133.063,94.153C133.37,94.238 133.55,94.555 133.466,94.863L132.642,97.854Z" style="fill:rgb(86,41,30);"/>
                <path id="path56" d="M141.056,103.29C141.354,103.402 141.505,103.735 141.393,104.033C141.28,104.331 140.948,104.482 140.649,104.37L137.746,103.277C137.447,103.165 137.297,102.832 137.409,102.534C137.521,102.236 137.854,102.085 138.152,102.197L141.056,103.29Z" style="fill:rgb(86,41,30);"/>
                <path id="path58" d="M134.396,92.352C134.133,92.532 133.774,92.465 133.594,92.202C133.414,91.939 133.48,91.58 133.743,91.4L136.302,89.645C136.565,89.465 136.924,89.532 137.104,89.794C137.284,90.057 137.217,90.416 136.954,90.596L134.396,92.352Z" style="fill:rgb(86,41,30);"/>
                <path id="path60" d="M135.231,96.366C135.244,96.685 134.996,96.953 134.677,96.966C134.359,96.978 134.091,96.73 134.078,96.412L133.955,93.312C133.942,92.993 134.19,92.725 134.508,92.712C134.827,92.7 135.095,92.947 135.108,93.266L135.231,96.366Z" style="fill:rgb(86,41,30);"/>
                <path id="path62" d="M138.998,99.943C139.273,99.781 139.626,99.872 139.788,100.147C139.95,100.421 139.859,100.775 139.585,100.937L136.913,102.514C136.638,102.676 136.284,102.584 136.122,102.31C135.96,102.036 136.052,101.682 136.326,101.52L138.998,99.943Z" style="fill:rgb(86,41,30);"/>
                <path id="path64" d="M136.478,100.06C136.698,100.291 136.688,100.656 136.457,100.876C136.226,101.095 135.861,101.086 135.641,100.855L133.505,98.605C133.285,98.374 133.295,98.008 133.526,97.789C133.757,97.569 134.122,97.579 134.342,97.81L136.478,100.06Z" style="fill:rgb(86,41,30);"/>
                <path id="path66" d="M136.537,98.07C136.469,98.381 136.161,98.579 135.85,98.511C135.539,98.443 135.341,98.136 135.409,97.824L136.069,94.793C136.137,94.481 136.445,94.284 136.756,94.352C137.067,94.42 137.265,94.727 137.197,95.038L136.537,98.07Z" style="fill:rgb(86,41,30);"/>
                <path id="path68" d="M139.684,97.39C139.942,97.203 140.303,97.262 140.489,97.521C140.675,97.779 140.616,98.14 140.357,98.326L137.839,100.138C137.58,100.324 137.22,100.265 137.034,100.007C136.847,99.748 136.906,99.388 137.165,99.202L139.684,97.39Z" style="fill:rgb(86,41,30);"/>
                <path id="path70" d="M138.07,97.769C137.925,98.053 137.578,98.166 137.294,98.022C137.01,97.877 136.896,97.53 137.041,97.246L138.445,94.479C138.589,94.195 138.936,94.081 139.22,94.226C139.505,94.37 139.618,94.717 139.474,95.001L138.07,97.769Z" style="fill:rgb(86,41,30);"/>
                <path id="path72" d="M143.398,103.443C143.607,103.663 143.609,104.005 143.408,104.227L142.611,104.284C142.594,104.269 142.577,104.254 142.562,104.237L140.425,101.987C140.205,101.756 140.215,101.39 140.446,101.171C140.677,100.952 141.042,100.961 141.262,101.193L143.398,103.443Z" style="fill:rgb(86,41,30);"/>
                <path id="path74" d="M143.537,101.099C143.756,101.33 143.747,101.695 143.516,101.914C143.284,102.134 142.919,102.124 142.7,101.893L140.563,99.643C140.344,99.412 140.354,99.047 140.584,98.827C140.815,98.608 141.181,98.617 141.4,98.848L143.537,101.099Z" style="fill:rgb(86,41,30);"/>
                <path id="path76" d="M146.799,101.341C147.074,101.179 147.427,101.27 147.589,101.544C147.751,101.819 147.66,102.172 147.386,102.335L144.713,103.911C144.439,104.073 144.085,103.982 143.923,103.708C143.761,103.433 143.853,103.079 144.127,102.917L146.799,101.341Z" style="fill:rgb(86,41,30);"/>
                <path id="path78" d="M147.227,99.324C147.501,99.162 147.855,99.253 148.017,99.528C148.179,99.802 148.088,100.156 147.813,100.318L145.141,101.894C144.866,102.056 144.513,101.965 144.351,101.691C144.189,101.416 144.28,101.063 144.555,100.9L147.227,99.324Z" style="fill:rgb(86,41,30);"/>
                <path id="path80" d="M148.257,103.877L147.929,103.531C147.709,103.3 147.719,102.935 147.95,102.715C148.181,102.496 148.546,102.506 148.766,102.737L149.746,103.769L148.257,103.877Z" style="fill:rgb(86,41,30);"/>
                <path id="path82" d="M151.493,103.158C151.618,103.29 151.669,103.466 151.647,103.632L150.436,103.72L148.52,101.703C148.301,101.472 148.31,101.106 148.541,100.887C148.773,100.668 149.138,100.677 149.357,100.908L151.493,103.158Z" style="fill:rgb(86,41,30);"/>
                <path id="path84" d="M154.802,102.75C155.063,102.848 155.21,103.114 155.169,103.378L153.513,103.498L151.492,102.737C151.193,102.625 151.042,102.292 151.154,101.994C151.267,101.696 151.599,101.545 151.898,101.657L154.802,102.75Z" style="fill:rgb(86,41,30);"/>
                <path id="path86" d="M153.544,99.896C153.629,100.203 153.947,100.383 154.254,100.298C154.561,100.213 154.741,99.896 154.657,99.588L153.83,96.598C153.746,96.29 153.427,96.11 153.121,96.195C152.814,96.28 152.633,96.598 152.718,96.905L153.544,99.896Z" style="fill:rgb(86,41,30);"/>
                <path id="path88" d="M148.943,92.466C149.205,92.648 149.564,92.583 149.746,92.322C149.928,92.06 149.864,91.701 149.602,91.519L147.055,89.747C146.794,89.565 146.434,89.629 146.252,89.891C146.07,90.152 146.134,90.512 146.396,90.694L148.943,92.466Z" style="fill:rgb(86,41,30);"/>
                <path id="path90" d="M145.311,90.356C145.625,90.412 145.925,90.203 145.981,89.889C146.037,89.576 145.828,89.276 145.514,89.22L142.459,88.675C142.146,88.619 141.846,88.828 141.79,89.142C141.734,89.455 141.943,89.755 142.257,89.811L145.311,90.356Z" style="fill:rgb(86,41,30);"/>
                <path id="path92" d="M154.664,101.138C154.963,101.247 155.118,101.577 155.01,101.877C154.901,102.176 154.571,102.332 154.271,102.223L151.353,101.167C151.054,101.059 150.899,100.728 151.007,100.429C151.116,100.129 151.446,99.974 151.746,100.082L154.664,101.138Z" style="fill:rgb(86,41,30);"/>
                <path id="path94" d="M143.954,98.509C144.174,98.74 144.164,99.105 143.933,99.325C143.702,99.544 143.337,99.534 143.117,99.303L140.981,97.053C140.761,96.822 140.771,96.457 141.002,96.238C141.233,96.018 141.598,96.028 141.818,96.259L143.954,98.509Z" style="fill:rgb(86,41,30);"/>
                <path id="path96" d="M140.652,95.892C140.47,96.153 140.11,96.218 139.849,96.036C139.587,95.854 139.523,95.495 139.705,95.233L141.477,92.686C141.659,92.424 142.018,92.36 142.28,92.542C142.541,92.724 142.606,93.083 142.424,93.345L140.652,95.892Z" style="fill:rgb(86,41,30);"/>
                <path id="path98" d="M136.531,93.261C136.27,93.444 135.91,93.38 135.728,93.119C135.545,92.858 135.609,92.498 135.87,92.315L138.412,90.537C138.673,90.354 139.033,90.418 139.216,90.679C139.398,90.94 139.335,91.3 139.074,91.483L136.531,93.261Z" style="fill:rgb(86,41,30);"/>
                <path id="path100" d="M137.953,90.379C137.64,90.438 137.339,90.232 137.28,89.918C137.222,89.605 137.428,89.304 137.741,89.245L140.791,88.674C141.104,88.615 141.405,88.822 141.464,89.135C141.523,89.448 141.316,89.75 141.003,89.808L137.953,90.379Z" style="fill:rgb(86,41,30);"/>
                <path id="path102" d="M151.94,95.949C152.134,96.202 152.496,96.251 152.75,96.057C153.003,95.864 153.051,95.501 152.857,95.248L150.974,92.783C150.781,92.53 150.418,92.481 150.165,92.675C149.912,92.868 149.863,93.23 150.057,93.483L151.94,95.949Z" style="fill:rgb(86,41,30);"/>
                <path id="path104" d="M139.155,93.377C138.885,93.547 138.529,93.465 138.359,93.195C138.19,92.924 138.272,92.569 138.542,92.399L141.172,90.753C141.442,90.584 141.798,90.665 141.967,90.935C142.136,91.206 142.054,91.561 141.784,91.731L139.155,93.377Z" style="fill:rgb(86,41,30);"/>
                <path id="path106" d="M143.031,91.789C142.724,91.703 142.546,91.384 142.633,91.077C142.72,90.771 143.038,90.592 143.345,90.679L146.331,91.522C146.638,91.609 146.816,91.928 146.729,92.234C146.643,92.541 146.324,92.72 146.017,92.633L143.031,91.789Z" style="fill:rgb(86,41,30);"/>
                <path id="path108" d="M147.264,93.238C147.016,93.037 146.979,92.674 147.179,92.426C147.38,92.179 147.743,92.141 147.991,92.342L150.4,94.296C150.648,94.497 150.686,94.86 150.485,95.108C150.284,95.355 149.921,95.393 149.673,95.192L147.264,93.238Z" style="fill:rgb(86,41,30);"/>
                <path id="path110" d="M150.411,96.334C150.288,96.04 150.426,95.702 150.72,95.579C151.014,95.456 151.352,95.594 151.476,95.887L152.676,98.748C152.799,99.042 152.661,99.38 152.367,99.503C152.073,99.627 151.735,99.489 151.611,99.195L150.411,96.334Z" style="fill:rgb(86,41,30);"/>
                <path id="path112" d="M149.222,97.259C149.19,96.941 149.422,96.66 149.74,96.628C150.057,96.597 150.339,96.828 150.371,97.146L150.674,100.234C150.706,100.551 150.474,100.833 150.157,100.864C149.84,100.895 149.557,100.664 149.526,100.346L149.222,97.259Z" style="fill:rgb(86,41,30);"/>
                <path id="path114" d="M148.982,95.804C149.202,96.035 149.192,96.4 148.961,96.619C148.73,96.839 148.365,96.829 148.145,96.598L146.009,94.348C145.789,94.117 145.799,93.752 146.03,93.532C146.261,93.313 146.626,93.322 146.846,93.554L148.982,95.804Z" style="fill:rgb(86,41,30);"/>
                <path id="path116" d="M146.183,94.743C146.402,94.974 146.393,95.339 146.162,95.559C145.931,95.778 145.565,95.769 145.346,95.538L143.21,93.288C142.99,93.057 143,92.692 143.231,92.472C143.462,92.253 143.827,92.262 144.046,92.493L146.183,94.743Z" style="fill:rgb(86,41,30);"/>
                <path id="path118" d="M147.456,97.166C147.727,96.999 148.083,97.083 148.25,97.354C148.417,97.626 148.333,97.981 148.062,98.148L145.421,99.776C145.149,99.944 144.794,99.859 144.627,99.588C144.459,99.317 144.544,98.961 144.815,98.794L147.456,97.166Z" style="fill:rgb(86,41,30);"/>
                <path id="path120" d="M145.387,96.79C145.607,97.021 145.597,97.386 145.366,97.605C145.135,97.825 144.77,97.815 144.55,97.584L142.414,95.334C142.194,95.104 142.204,94.738 142.435,94.519C142.666,94.299 143.031,94.309 143.251,94.54L145.387,96.79Z" style="fill:rgb(86,41,30);"/>
                <path id="path122" d="M153.817,103.476C153.862,103.167 154.145,102.95 154.457,102.987C154.692,103.015 154.877,103.182 154.94,103.395L153.817,103.476Z" style="fill:rgb(86,41,30);"/>
                <path id="path124" d="M149.98,102.883C149.682,102.771 149.531,102.438 149.644,102.14C149.756,101.842 150.088,101.691 150.387,101.803L153.29,102.896C153.539,102.989 153.685,103.235 153.662,103.487L151.92,103.613L149.98,102.883Z" style="fill:rgb(86,41,30);"/>
                <path id="path126" d="M146.425,104.009C146.451,103.908 146.505,103.812 146.586,103.735C146.818,103.515 147.183,103.525 147.402,103.756L147.565,103.927L146.425,104.009Z" style="fill:rgb(86,41,30);"/>
                <path id="path128" d="M129.499,104.716C129.415,104.408 129.097,104.228 128.789,104.313C128.482,104.397 128.302,104.715 128.387,105.022L128.465,105.304L129.638,105.22L129.499,104.716Z" style="fill:rgb(86,41,30);"/>
                <path id="path130" d="M130.593,105.151C130.619,105.134 130.647,105.119 130.677,105.107C130.829,105.043 130.994,105.049 131.134,105.112L130.593,105.151Z" style="fill:rgb(86,41,30);"/>
                <path d="M154.038,103.913L151.515,102.957L149.158,104.295C149.158,104.295 146.634,103.338 146.634,103.338L144.278,104.676C144.278,104.676 141.756,103.72 141.756,103.72L139.4,105.057C139.4,105.057 136.878,104.101 136.878,104.101L134.524,105.439C134.524,105.439 132.001,104.482 132.001,104.482L129.645,105.82C129.645,105.82 126.611,104.665 126.611,104.665L127.704,107.059L133.621,118.318L151.91,116.888L156.145,104.83L156.851,102.3L154.038,103.913ZM153.963,104.49L154.088,104.538L155.933,103.48C155.933,103.48 155.604,104.659 155.604,104.659C155.604,104.659 151.498,116.352 151.498,116.352C151.498,116.352 133.95,117.724 133.95,117.724C133.95,117.724 128.209,106.802 128.209,106.802C128.209,106.802 127.7,105.686 127.7,105.686C127.7,105.686 129.693,106.445 129.693,106.445L132.049,105.107C132.049,105.107 134.572,106.063 134.572,106.063L136.927,104.726C136.927,104.726 139.448,105.682 139.448,105.682L141.804,104.344C141.804,104.344 144.326,105.301 144.326,105.301L146.683,103.963C146.683,103.963 149.206,104.919 149.206,104.919L151.563,103.581C151.563,103.581 153.963,104.49 153.963,104.49Z" style="fill:rgb(117,70,36);"/>
                <path d="M135.128,118.152L129.809,105.472L126.483,104.152L133.609,118.266L135.128,118.152ZM129.378,105.911L134.301,117.646C134.301,117.646 133.944,117.673 133.944,117.673C133.944,117.673 127.662,105.23 127.662,105.23L129.378,105.911Z" style="fill:rgb(117,70,36);"/>
                <path d="M134.714,105.114L131.486,103.838L136.182,118.073L137.938,117.94L134.714,105.114ZM132.404,104.81L134.235,105.534C134.235,105.534 137.224,117.426 137.224,117.426C137.224,117.426 136.582,117.474 136.582,117.474L132.404,104.81Z" style="fill:rgb(117,70,36);"/>
                <path d="M139.619,104.757L136.443,103.502L139.333,117.835L140.861,117.72L139.619,104.757ZM137.205,104.412L139.088,105.156C139.088,105.156 140.242,117.199 140.242,117.199C140.242,117.199 139.79,117.233 139.79,117.233L137.205,104.412Z" style="fill:rgb(117,70,36);"/>
                <path d="M144.51,104.394L141.388,103.16L142.475,117.599L145.015,117.408L144.51,104.394ZM142.021,104.02L143.958,104.785C143.958,104.785 144.427,116.884 144.427,116.884C144.427,116.884 142.998,116.991 142.998,116.991L142.021,104.02Z" style="fill:rgb(117,70,36);"/>
                <path d="M149.425,104.039L146.305,102.807L146.207,117.318L147.776,117.2L149.425,104.039ZM146.866,103.638L148.808,104.405C148.808,104.405 147.271,116.669 147.271,116.669C147.271,116.669 146.778,116.707 146.778,116.707L146.866,103.638Z" style="fill:rgb(117,70,36);"/>
                <path d="M154.34,103.684L151.241,102.461L149.026,117.106L150.726,116.978L154.34,103.684ZM151.695,103.249L153.66,104.025C153.66,104.025 150.284,116.443 150.284,116.443C150.284,116.443 149.692,116.487 149.692,116.487L151.695,103.249Z" style="fill:rgb(117,70,36);"/>
            </g>
        </g>
    </g>
    <defs>
        <linearGradient id="_Linear2" x1="0" y1="0" x2="1" y2="0" gradientUnits="userSpaceOnUse" gradientTransform="matrix(-105.85,-1.08865,1.08865,-105.85,205.433,107.199)"><stop offset="0" style="stop-color:rgb(86,41,30);stop-opacity:1"/><stop offset="0.25" style="stop-color:rgb(148,104,59);stop-opacity:1"/><stop offset="0.48" style="stop-color:rgb(222,169,98);stop-opacity:1"/><stop offset="0.73" style="stop-color:rgb(148,104,59);stop-opacity:1"/><stop offset="1" style="stop-color:rgb(75,35,22);stop-opacity:1"/></linearGradient>
    </defs>
</svg>
