<?xml version="1.0" encoding="UTF-8" standalone="no"?>
<!DOCTYPE svg PUBLIC "-//W3C//DTD SVG 1.1//EN" "http://www.w3.org/Graphics/SVG/1.1/DTD/svg11.dtd">
<svg width="100%" height="100%" viewBox="0 0 155 155" version="1.1" xmlns="http://www.w3.org/2000/svg" xmlns:xlink="http://www.w3.org/1999/xlink" xml:space="preserve" xmlns:serif="http://www.serif.com/" style="fill-rule:evenodd;clip-rule:evenodd;stroke-linejoin:round;stroke-miterlimit:2;">
    <g transform="matrix(0.462281,0,0,0.462281,-218.148,-27.6081)">
        <clipPath id="_clip1">
            <rect x="531.541" y="65.368" width="216" height="324"/>
        </clipPath>
        <g clip-path="url(#_clip1)">
            <g transform="matrix(35.4098,0,0,-35.3868,464.262,335.723)">
                <path d="M4.012,3.703L5.88,4.066C5.917,4.074 5.957,4.074 5.994,4.066L6.428,3.982L6.972,3.877L6.972,4.547C6.972,4.697 6.85,4.818 6.7,4.818L6.408,4.818L6.408,5.53C6.408,6.604 5.534,7.478 4.46,7.478C3.386,7.478 2.512,6.604 2.512,5.53L2.512,4.817L2.221,4.817C2.071,4.817 1.95,4.696 1.95,4.546L1.95,0.856C1.95,0.705 2.072,0.584 2.221,0.584L3.654,0.584L3.677,1.127L3.774,3.426C3.78,3.562 3.878,3.677 4.012,3.703ZM3.055,5.53C3.055,6.305 3.685,6.935 4.46,6.935C5.235,6.935 5.864,6.305 5.864,5.53L5.864,4.817L3.055,4.817L3.055,5.53Z" style="fill:white;fill-rule:nonzero;"/>
            </g>
            <g transform="matrix(35.4098,0,0,-35.3868,464.262,532.261)">
                <path d="M7.939,8.815C7.934,8.942 7.842,9.049 7.718,9.073L6.894,9.233L6.391,9.331L5.991,9.409C5.956,9.416 5.919,9.416 5.884,9.409L4.157,9.073C4.033,9.049 3.942,8.942 3.937,8.815L3.847,6.69L3.826,6.188L3.825,6.168C3.821,6.089 3.853,6.009 3.913,5.955L5.753,4.271C5.806,4.223 5.871,4.2 5.939,4.2C6.004,4.2 6.072,4.223 6.124,4.271L7.962,5.955C8.023,6.009 8.056,6.089 8.052,6.168L7.939,8.815ZM5.938,4.844L4.376,6.272L4.475,8.576L5.939,8.862L7.401,8.576L7.5,6.272L5.938,4.844Z" style="fill:white;fill-rule:nonzero;"/>
            </g>
            <g transform="matrix(35.4098,0,0,-35.3868,464.262,513.4)">
                <path d="M5.753,6.29C5.202,6.732 5.147,6.75 5.102,6.767L4.928,6.248C4.906,6.255 5.326,5.933 5.628,5.688C5.676,5.648 5.739,5.626 5.801,5.626C5.811,5.626 5.822,5.626 5.833,5.628C5.905,5.637 5.973,5.675 6.017,5.733L7.079,7.125L6.643,7.457L5.753,6.29Z" style="fill:white;fill-rule:nonzero;"/>
            </g>
        </g>
    </g>
</svg>
