<?xml version="1.0" encoding="UTF-8" standalone="no"?>
<!DOCTYPE svg PUBLIC "-//W3C//DTD SVG 1.1//EN" "http://www.w3.org/Graphics/SVG/1.1/DTD/svg11.dtd">
<svg width="100%" height="100%" viewBox="0 0 200 200" version="1.1" xmlns="http://www.w3.org/2000/svg" xmlns:xlink="http://www.w3.org/1999/xlink" xml:space="preserve" xmlns:serif="http://www.serif.com/" style="fill-rule:evenodd;clip-rule:evenodd;stroke-linejoin:round;stroke-miterlimit:2;">
    <g transform="matrix(2.24719,0,0,2.24719,-898.876,-6110.11)">
        <path d="M489,2741.25C489,2728.97 479.03,2719 466.75,2719L422.25,2719C409.97,2719 400,2728.97 400,2741.25L400,2785.75C400,2798.03 409.97,2808 422.25,2808L466.75,2808C479.03,2808 489,2798.03 489,2785.75L489,2741.25Z" style="fill:white;"/>
    </g>
    <g transform="matrix(3.00417,0,0,3.00417,-200.417,-462.651)">
        <g transform="matrix(1.71154,0,0,-1.70884,72.6154,197.259)">
            <path d="M16,6L29,13.8L29,13.834C29,13.9 28.997,13.965 28.99,14.03C28.984,14.095 28.974,14.16 28.962,14.224C28.949,14.288 28.933,14.352 28.914,14.415C28.895,14.477 28.873,14.539 28.848,14.599C28.823,14.66 28.795,14.719 28.764,14.777C28.733,14.835 28.699,14.891 28.663,14.945C28.627,15 28.588,15.052 28.546,15.103C28.504,15.153 28.461,15.202 28.414,15.248C28.368,15.295 28.319,15.338 28.269,15.38C28.218,15.422 28.166,15.461 28.111,15.497C28.057,15.533 28.001,15.567 27.943,15.598C27.885,15.629 27.826,15.657 27.765,15.682C27.705,15.707 27.643,15.729 27.581,15.748C27.518,15.767 27.454,15.783 27.39,15.796C27.326,15.808 27.261,15.818 27.196,15.824C27.131,15.831 27.066,15.834 27,15.834L5,15.834C4.934,15.834 4.869,15.831 4.804,15.824C4.739,15.818 4.674,15.808 4.61,15.796C4.546,15.783 4.482,15.767 4.419,15.748C4.357,15.729 4.295,15.707 4.235,15.682C4.174,15.657 4.115,15.629 4.057,15.598C3.999,15.567 3.943,15.533 3.889,15.497C3.834,15.461 3.782,15.422 3.731,15.38C3.681,15.338 3.632,15.295 3.586,15.248C3.539,15.202 3.496,15.153 3.454,15.103C3.412,15.052 3.373,15 3.337,14.945C3.301,14.891 3.267,14.835 3.236,14.777C3.205,14.719 3.177,14.66 3.152,14.599C3.127,14.539 3.105,14.477 3.086,14.415C3.067,14.352 3.051,14.288 3.038,14.224C3.026,14.16 3.016,14.095 3.01,14.03C3.003,13.965 3,13.9 3,13.834L3,13.8L16,6Z" style="fill:rgb(2,69,114);fill-rule:nonzero;"/>
        </g>
        <g transform="matrix(1.71154,0,0,-1.70884,72.6154,222.092)">
            <path d="M16.515,18.509C16.437,18.462 16.355,18.427 16.267,18.403C16.18,18.378 16.091,18.366 16,18.366C15.909,18.366 15.82,18.378 15.733,18.403C15.645,18.427 15.563,18.462 15.485,18.509L3,26L3,12.366C3,12.3 3.003,12.235 3.01,12.17C3.016,12.105 3.026,12.04 3.038,11.976C3.051,11.912 3.067,11.848 3.086,11.785C3.105,11.723 3.127,11.661 3.152,11.601C3.177,11.54 3.205,11.481 3.236,11.423C3.267,11.365 3.301,11.309 3.337,11.255C3.373,11.2 3.412,11.148 3.454,11.097C3.496,11.047 3.539,10.998 3.586,10.952C3.632,10.905 3.681,10.862 3.731,10.82C3.782,10.778 3.834,10.739 3.889,10.703C3.943,10.667 3.999,10.633 4.057,10.602C4.115,10.571 4.174,10.543 4.235,10.518C4.295,10.493 4.357,10.471 4.419,10.452C4.482,10.433 4.546,10.417 4.61,10.404C4.674,10.392 4.739,10.382 4.804,10.376C4.869,10.369 4.934,10.366 5,10.366L27,10.366C27.066,10.366 27.131,10.369 27.196,10.376C27.261,10.382 27.326,10.392 27.39,10.404C27.454,10.417 27.518,10.433 27.581,10.452C27.643,10.471 27.705,10.493 27.765,10.518C27.826,10.543 27.885,10.571 27.943,10.602C28.001,10.633 28.057,10.667 28.111,10.703C28.166,10.739 28.218,10.778 28.269,10.82C28.319,10.862 28.368,10.905 28.414,10.952C28.461,10.998 28.504,11.047 28.546,11.097C28.588,11.148 28.627,11.2 28.663,11.255C28.699,11.309 28.733,11.365 28.764,11.423C28.795,11.481 28.823,11.54 28.848,11.601C28.873,11.661 28.895,11.723 28.914,11.785C28.933,11.848 28.949,11.912 28.962,11.976C28.974,12.04 28.984,12.105 28.99,12.17C28.997,12.235 29,12.3 29,12.366L29,26L16.515,18.509Z" style="fill:rgb(2,69,114);fill-rule:nonzero;"/>
        </g>
    </g>
</svg>
