<?xml version="1.0" encoding="UTF-8" standalone="no"?>
<!DOCTYPE svg PUBLIC "-//W3C//DTD SVG 1.1//EN" "http://www.w3.org/Graphics/SVG/1.1/DTD/svg11.dtd">
<svg width="100%" height="100%" viewBox="0 0 200 200" version="1.1" xmlns="http://www.w3.org/2000/svg" xmlns:xlink="http://www.w3.org/1999/xlink" xml:space="preserve" xmlns:serif="http://www.serif.com/" style="fill-rule:evenodd;clip-rule:evenodd;stroke-linejoin:round;stroke-miterlimit:2;">
    <g transform="matrix(2.24719,0,0,2.24719,-898.876,-6110.11)">
        <path d="M489,2741.25C489,2728.97 479.03,2719 466.75,2719L422.25,2719C409.97,2719 400,2728.97 400,2741.25L400,2785.75C400,2798.03 409.97,2808 422.25,2808L466.75,2808C479.03,2808 489,2798.03 489,2785.75L489,2741.25Z" style="fill:white;"/>
    </g>
    <g transform="matrix(0.553541,0,0,0.553541,13.1727,19.2689)">
        <g transform="matrix(0.47749,0,0,-0.477191,52.2498,285.584)">
            <path d="M87.363,449.691C90.242,448.047 90.859,444.883 92.18,442.035C93.746,438.66 95.805,435.355 97.551,432.035C101.504,424.5 105.469,416.969 109.438,409.441C117.285,394.559 125.148,379.684 132.988,364.801C134.156,362.586 135.344,360.297 135.555,357.805C136.125,351.113 125.266,343.586 120.203,340.465C107.34,332.523 94.902,326.617 86.066,313.625C84.684,311.594 83.41,309.422 82.898,307.016C81.641,301.094 87.418,292.918 89.93,287.766C93.262,280.93 96.844,274.219 100.672,267.648C108.363,254.449 117.043,241.82 126.672,229.957C151.906,198.863 183.871,172.941 220.895,157.277C223.461,156.191 239.297,173.07 241.617,175.785C247.527,182.699 252.633,190.219 259.223,196.547C268.199,205.164 275.566,208.687 286.543,201.055C308.434,185.832 330.785,171.273 353.559,157.402C384.895,138.316 339.41,89.918 319.129,81.23C274.461,62.105 221.598,78.672 181.387,100.812C100.164,145.527 37.273,222.477 9.613,310.973C3.051,331.973 -1.633,354 0.535,375.898C3.738,408.199 25.191,436.219 56.148,446.473C64.43,449.215 73.137,450.68 81.863,450.723C83.52,450.73 85.23,450.68 86.746,450.004C86.961,449.906 87.168,449.801 87.363,449.691" style="fill:rgb(2,69,114);fill-rule:nonzero;"/>
        </g>
        <g transform="matrix(0.47749,0,0,-0.477191,52.2498,149.271)">
            <path d="M419.148,96.395C408.445,120.262 393.727,141.902 375.398,160.711C357.07,179.523 335.82,194.797 312.234,206.117C287.941,217.773 261.961,224.832 235.016,227.102C229.34,227.582 223.906,225.859 220.117,222.371C217.188,219.68 215.578,216.191 215.582,212.551C215.586,204.398 222.977,197.375 232.418,196.566C326.758,188.625 402.113,111.371 407.527,16.852L407.527,16.844C408.086,7.391 414.922,-0.18 423.07,-0.395C423.426,-0.402 423.777,-0.398 424.129,-0.379C427.391,-0.184 430.508,1.305 433.008,3.883C436.594,7.582 438.457,12.965 438.121,18.652C436.555,45.652 430.172,71.805 419.148,96.395" style="fill:rgb(2,69,114);fill-rule:nonzero;"/>
        </g>
        <g transform="matrix(0.47749,0,0,-0.477191,52.2498,187.829)">
            <path d="M324.887,192.293C310.309,207.254 293.43,219.445 274.711,228.535C255.441,237.887 234.828,243.645 213.438,245.648C208.133,246.152 203.066,244.594 199.543,241.375C196.887,238.953 195.426,235.816 195.43,232.543L195.391,229.727L195.391,229.676C195.398,225.953 197.066,222.395 200.086,219.66C202.887,217.125 206.566,215.516 210.52,215.137C283.355,208.316 339.902,150.395 344.695,77.402L344.695,77.395C345.09,73.449 346.512,69.687 348.973,66.824C351.629,63.738 355.156,61.977 358.883,61.875L361.754,61.836C362.066,61.828 362.383,61.836 362.695,61.852C365.633,62.027 368.441,63.375 370.695,65.719C374.004,69.16 375.695,74.184 375.328,79.5C373.883,100.934 368.66,121.691 359.809,141.195C351.211,160.141 339.461,177.336 324.887,192.293" style="fill:rgb(2,69,114);fill-rule:nonzero;"/>
        </g>
        <g transform="matrix(0.47749,0,0,-0.477191,52.2498,226.388)">
            <path d="M294.73,187.344C288.918,199.812 281.086,211.145 271.449,221.031C261.816,230.922 250.688,239.043 238.379,245.18C225.723,251.484 212.172,255.504 198.102,257.125C193.371,257.676 188.699,256.344 185.605,253.566C183.371,251.566 182.148,248.977 182.156,246.273L182.063,238.988L182.063,238.926C182.082,235.809 183.48,232.824 185.996,230.523C188.285,228.43 191.324,227.066 194.559,226.684C237.406,221.746 271.277,186.98 275.102,144.02L275.105,144.012C275.402,140.777 276.688,137.707 278.719,135.363C280.953,132.785 283.902,131.312 287.02,131.211L294.367,131.117C294.629,131.109 294.891,131.113 295.148,131.129C297.57,131.27 299.887,132.402 301.746,134.371C304.605,137.395 306.055,142.027 305.629,146.766C304.371,160.879 300.703,174.531 294.73,187.344" style="fill:rgb(2,69,114);fill-rule:nonzero;"/>
        </g>
    </g>
</svg>
