<?xml version="1.0" encoding="UTF-8" standalone="no"?>
<!DOCTYPE svg PUBLIC "-//W3C//DTD SVG 1.1//EN" "http://www.w3.org/Graphics/SVG/1.1/DTD/svg11.dtd">
<svg width="100%" height="100%" viewBox="0 0 155 155" version="1.1" xmlns="http://www.w3.org/2000/svg" xmlns:xlink="http://www.w3.org/1999/xlink" xml:space="preserve" xmlns:serif="http://www.serif.com/" style="fill-rule:evenodd;clip-rule:evenodd;stroke-linecap:round;stroke-linejoin:round;">
    <g transform="matrix(1,0,0,1,-1251.17,-1483.05)">
        <g transform="matrix(0,0.319159,-0.31929,0,1318.23,1500.23)">
            <ellipse cx="78.147" cy="145.149" rx="40.629" ry="40.643" style="fill:none;stroke:white;stroke-width:21.57px;"/>
        </g>
        <g transform="matrix(0,0.319159,-0.31929,0,1423.02,1522.82)">
            <ellipse cx="206.842" cy="344.633" rx="42.799" ry="42.811" style="fill:none;stroke:white;stroke-width:21.57px;"/>
        </g>
        <g transform="matrix(0,0.319159,-0.31929,0,1458.14,1487.72)">
            <ellipse cx="316.842" cy="344.633" rx="42.799" ry="42.806" style="fill:none;stroke:white;stroke-width:21.57px;"/>
        </g>
        <g transform="matrix(0,0.319159,-0.31929,0,1493.26,1452.6)">
            <ellipse cx="426.856" cy="344.633" rx="42.799" ry="42.815" style="fill:none;stroke:white;stroke-width:21.57px;"/>
        </g>
        <g transform="matrix(0.31929,0,0,-0.319159,1246.94,1648.19)">
            <path d="M212.74,343.744C210.817,345.073 201.245,349.434 196.433,342.62L168.402,301.399C168.402,301.399 124.002,319.554 101.442,324.913C99.384,325.353 90.759,327.765 81.227,327.765C50.771,327.765 26,304.033 26,274.871L26,181.171L136.437,181.171L136.437,282.824L168.717,272.099C170.218,271.411 171.844,271.06 173.479,271.06C177.307,271.06 180.856,272.915 183.03,276.052L217.637,326.359C223.778,335.378 215.301,341.987 212.74,343.744Z" style="fill:none;fill-rule:nonzero;stroke:white;stroke-width:21.57px;"/>
        </g>
        <g transform="matrix(0.31929,0,0,-0.319159,1246.94,1575.76)">
            <path d="M214.96,54.067L385.744,54.067C392.015,54.067 397.154,59.174 397.154,65.458L397.154,238.188C397.154,244.481 392.014,249.598 385.744,249.598L101.164,249.598C94.875,249.598 89.78,244.481 89.78,238.188L89.78,219.36" style="fill:none;fill-rule:nonzero;stroke:white;stroke-width:21.57px;"/>
        </g>
        <g transform="matrix(0.31929,0,0,-0.319159,1246.94,1753.45)">
            <path d="M485.093,408.196C482.919,421.917 475.92,434.503 465.319,443.614C454.619,452.848 440.971,457.934 426.839,457.934C412.743,457.934 399.06,452.848 388.396,443.614C380.974,437.229 375.333,429.139 371.865,420.159C368.37,429.139 362.736,437.229 355.324,443.614C344.606,452.848 330.968,457.934 316.836,457.934C302.731,457.934 289.092,452.848 278.392,443.614C270.953,437.229 265.329,429.139 261.842,420.159C258.365,429.139 252.741,437.229 245.302,443.614C234.602,452.848 220.946,457.934 206.831,457.934C192.716,457.934 179.069,452.848 168.369,443.614C157.794,434.495 150.795,421.917 148.621,408.196L147.714,402.477L486,402.477L485.093,408.196Z" style="fill:none;fill-rule:nonzero;stroke:white;stroke-width:21.57px;"/>
        </g>
        <g transform="matrix(0.173749,-0.267765,0.267875,0.173678,1237.49,1563.93)">
            <path d="M201.376,160.525L259.674,160.525" style="fill:none;fill-rule:nonzero;stroke:white;stroke-width:21.57px;"/>
        </g>
    </g>
</svg>
