<?xml version="1.0" encoding="UTF-8" standalone="no"?>
<!DOCTYPE svg PUBLIC "-//W3C//DTD SVG 1.1//EN" "http://www.w3.org/Graphics/SVG/1.1/DTD/svg11.dtd">
<svg width="100%" height="100%" viewBox="0 0 155 155" version="1.1" xmlns="http://www.w3.org/2000/svg" xmlns:xlink="http://www.w3.org/1999/xlink" xml:space="preserve" xmlns:serif="http://www.serif.com/" style="fill-rule:evenodd;clip-rule:evenodd;stroke-linejoin:round;stroke-miterlimit:2;">
    <g transform="matrix(1.23664,0,0,1.23664,-655.426,-1832.91)">
        <g transform="matrix(1.21371,0,0,-1.21231,537.147,1546.78)">
            <path d="M86.6,40.1L86.6,40.2C85.1,42.2 83.3,43.9 81.2,45.5L81.2,45.4C79.5,44.1 77.8,42.7 76.2,41.3C75.5,41.7 74.9,42 74.3,42.3C73.5,42.7 72.7,43.1 71.8,43.3C71.5,43.4 71.2,43.5 70.9,43.5C70.7,45.7 70.5,47.9 70.2,50.1C69.2,50.3 68.2,50.3 67.1,50.4L65.5,50.4C64.5,50.3 63.6,50.3 62.7,50.1C62.4,48 62.2,45.8 62.1,43.6C61.7,43.6 61.4,43.5 61,43.4C60.9,43.4 60.8,43.4 60.7,43.3C59.9,43.1 59.1,42.7 58.3,42.3C57.6,42 57,41.7 56.4,41.3C54.7,42.7 53.1,44 51.4,45.4L51.3,45.5C50.9,45.2 50.5,44.9 50.2,44.6C49.5,44.1 48.9,43.5 48.4,42.9C47.5,42.1 46.8,41.1 46,40.1L46.1,40.1C47.4,38.4 48.8,36.8 50.2,35.1C49.8,34.5 49.4,33.8 49.1,33.2C48.7,32.4 48.4,31.5 48.2,30.7C48,30.3 47.9,29.9 47.9,29.6C45.7,29.4 43.5,29.2 41.4,28.9C41.2,27.9 41.1,26.9 41.1,25.8C41.1,24.3 41.2,22.8 41.5,21.4C43.6,21.2 45.7,21 47.9,20.8C47.9,20.4 48,20 48.2,19.7C48.4,18.8 48.7,18 49.1,17.1C49.5,16.4 49.8,15.7 50.3,15.1C48.9,13.4 47.5,11.8 46.2,10.1C47.7,8 49.5,6.2 51.6,4.7L51.6,4.8C53.2,6.1 54.9,7.5 56.5,8.9L56.6,8.9C57.1,8.6 57.7,8.3 58.2,8C59.1,7.6 60.1,7.2 61,7C61.4,6.9 61.7,6.8 62,6.7C62.2,4.6 62.4,2.4 62.7,0.2C63.6,0.1 64.5,-0 65.5,-0L67,-0C68.1,-0 69.2,0.1 70.3,0.3C70.5,2.4 70.7,4.6 70.9,6.8C71.2,6.9 71.5,7 71.8,7.1C72.7,7.3 73.5,7.6 74.3,8C75,8.3 75.7,8.7 76.4,9.2C76.4,9.1 76.4,9.1 76.5,9.1C78.1,7.7 79.8,6.3 81.5,5C81.8,5.2 82.1,5.4 82.5,5.7C83.1,6.2 83.7,6.8 84.2,7.4C85.1,8.3 86,9.3 86.8,10.4C85.4,12.1 84,13.8 82.6,15.4L82.6,15.5C82.9,16 83.2,16.6 83.5,17.2C83.8,18 84.2,18.8 84.4,19.6C84.4,19.7 84.4,19.8 84.5,19.8C84.5,20.2 84.6,20.5 84.7,20.7C86.9,20.9 89.1,21.1 91.2,21.3C91.4,22.3 91.4,23.3 91.5,24.3L91.5,26C91.4,27 91.4,28 91.2,29C89.1,29.2 86.9,29.4 84.7,29.6C84.6,29.9 84.5,30.2 84.5,30.5C84.2,31.4 83.9,32.3 83.5,33.2C83.2,33.8 82.8,34.5 82.5,35.1C83.8,36.7 85.2,38.4 86.6,40.1L86.6,40.1ZM59.9,31.8C61.7,33.7 63.9,34.6 66.4,34.5C69,34.6 71.1,33.7 73,31.8C74.8,30 75.7,27.8 75.7,25.3C75.7,22.7 74.8,20.6 73,18.7C71.1,16.9 69,16 66.4,16C63.9,16 61.7,16.9 59.9,18.7C58.1,20.6 57.2,22.7 57.2,25.3C57.2,27.8 58.1,30 59.9,31.8L59.9,31.8Z" style="fill:white;fill-rule:nonzero;"/>
        </g>
        <g transform="matrix(1.21371,0,0,-1.21231,537.147,1643.52)">
            <path d="M40.8,96.6C40.4,96.8 40.1,96.9 39.8,96.9C38.6,97.2 37.4,97.4 36.2,97.6C35.1,94.9 34.2,92.3 33.3,89.7L31.5,89.7C30.3,89.6 29.2,89.5 28.1,89.3C27.2,89.2 26.3,88.9 25.4,88.6C23.8,90.9 22.1,93.2 20.5,95.4L20.4,95.5C19.8,95.3 19.2,95.1 18.7,94.8C17.7,94.4 16.8,93.9 15.9,93.3C14.5,92.6 13.2,91.7 12,90.6L12,90.5C13.2,88 14.3,85.5 15.5,83C14.8,82.3 14.2,81.7 13.6,80.9C12.8,80.1 12.1,79.1 11.5,78.1C11.2,77.7 11,77.3 10.8,76.8C8,77.3 5.2,77.8 2.4,78.2C1.9,77 1.4,75.8 1,74.5C0.6,72.5 0.2,70.6 -0,68.7L7.8,65.7L7.8,64.3C7.8,63.2 7.9,62 8.2,60.8C8.3,59.8 8.6,58.8 8.9,57.8C6.6,56.2 4.4,54.6 2.1,52.9C3.3,49.9 5,47.1 7,44.5L7.1,44.5C9.6,45.7 12.1,46.8 14.7,48C15.3,47.4 15.9,46.9 16.5,46.3C17.4,45.5 18.5,44.8 19.7,44.1C20,43.9 20.4,43.7 20.8,43.4C20.3,40.7 19.9,37.9 19.5,35.1C20.6,34.6 21.7,34.2 22.9,33.9C23.2,33.8 23.8,33.6 24.8,33.4C26.2,33 27.6,32.8 28.9,32.6C30,35.3 31,37.9 31.9,40.6L33.2,40.6C34.4,40.6 35.5,40.7 36.6,40.9C37.6,41.1 38.6,41.4 39.6,41.7C39.6,41.7 39.6,41.6 39.7,41.6C41.3,39.3 43,37 44.6,34.7C45.1,35 45.6,35.2 46,35.4C47,35.8 47.9,36.3 48.8,36.8C50.3,37.7 51.7,38.7 53,39.8C51.9,42.4 50.7,44.9 49.5,47.5C50.1,48.1 50.6,48.7 51.2,49.3C51.9,50.2 52.6,51.2 53.2,52.1C53.2,52.2 53.3,52.3 53.3,52.4C53.5,52.7 53.7,53.1 53.9,53.4C56.7,52.9 59.5,52.5 62.3,52C62.8,53.2 63.2,54.4 63.6,55.7C63.7,56 63.8,56.3 63.9,56.7C64,57 64,57.3 64.2,57.7C64.4,59 64.7,60.3 64.8,61.5C62.2,62.6 59.5,63.5 56.9,64.5L56.9,65.7C56.9,66.9 56.8,68.2 56.5,69.4C56.4,70.3 56.1,71.2 55.9,72.1C58.2,73.7 60.5,75.4 62.7,77.1L62.8,77.1C61.6,80.1 60,82.9 57.8,85.5C55.2,84.4 52.7,83.2 50.2,82C49.5,82.7 48.8,83.4 48.1,84C47.2,84.7 46.3,85.4 45.3,85.9C45,86.2 44.6,86.4 44.3,86.6C44.7,89.4 45.2,92.2 45.6,95C44.4,95.5 43.1,96 41.8,96.4C41.5,96.5 41.1,96.6 40.8,96.6L40.8,96.6ZM22.2,59.2C20.5,62.1 20.1,65.1 21,68.3C21.8,71.5 23.7,73.9 26.6,75.6C29.4,77.2 32.5,77.6 35.6,76.8C38.8,75.9 41.3,74.1 42.9,71.2C44.6,68.3 45,65.3 44.1,62.1C43.3,58.9 41.4,56.5 38.6,54.9C35.6,53.2 32.6,52.8 29.5,53.7C26.3,54.5 23.8,56.4 22.2,59.2L22.2,59.2Z" style="fill:white;fill-rule:nonzero;"/>
        </g>
    </g>
</svg>
