<?xml version="1.0" encoding="UTF-8" standalone="no"?>
<!DOCTYPE svg PUBLIC "-//W3C//DTD SVG 1.1//EN" "http://www.w3.org/Graphics/SVG/1.1/DTD/svg11.dtd">
<svg width="100%" height="100%" viewBox="0 0 260 85" version="1.1" xmlns="http://www.w3.org/2000/svg" xmlns:xlink="http://www.w3.org/1999/xlink" xml:space="preserve" xmlns:serif="http://www.serif.com/" style="fill-rule:evenodd;clip-rule:evenodd;stroke-linejoin:round;stroke-miterlimit:2;">
    <g id="PDR-3" serif:id="PDR 3" transform="matrix(0.57642,0,0,0.57642,-366.87,-35.5124)">
        <g transform="matrix(1,0,0,1,228.935,-405.278)">
            <path d="M617.04,512.025L617.04,559.126C617.04,566.981 617.55,572.181 618.59,574.707C619.842,577.721 622.708,579.44 627.208,579.844L629.882,580.099C631.007,580.183 631.559,580.799 631.559,581.945C631.559,583.092 630.773,583.665 629.203,583.665C628.821,583.665 628.227,583.622 627.399,583.537C626.062,583.41 624.703,583.346 623.302,583.346L613.666,582.964L611.246,583.028C608.295,583.028 604.284,583.346 599.189,583.962C597.534,584.195 596.217,584.301 595.283,584.301C593.946,584.301 593.266,583.791 593.224,582.794C593.181,581.839 593.712,581.245 594.795,580.99C598,580.247 600.123,578.74 601.184,576.447C602.245,574.176 602.776,569.952 602.776,563.818L602.776,515.953C602.776,511.176 601.863,507.695 600.059,505.488C598.255,503.301 595.22,501.964 590.953,501.518C589.403,501.306 588.639,500.648 588.639,499.544C588.639,498.313 589.531,497.697 591.314,497.697C591.781,497.697 592.758,497.761 594.243,497.888C598.807,498.185 604.092,498.334 610.121,498.334C612.986,498.334 615.342,498.271 617.21,498.143L624.13,497.697C626.443,497.528 628.566,497.443 630.476,497.443C642.215,497.443 650.79,499.905 656.182,504.85C661,509.287 663.399,514.679 663.399,521.004C663.399,527.86 660.873,533.634 655.821,538.367C650.769,543.101 644.571,545.457 637.248,545.457C633.257,545.457 629.776,545.032 626.762,544.205C623.769,543.356 622.262,542.379 622.262,541.254C622.262,540.129 622.771,539.556 623.811,539.556C624.066,539.556 624.406,539.62 624.809,539.747C627.081,540.405 629.288,540.745 631.411,540.745C636.377,540.745 640.474,539.131 643.68,535.884C646.884,532.636 648.498,528.497 648.498,523.466C648.498,517.183 646.63,512.068 642.915,508.098C639.179,504.129 634.382,502.155 628.524,502.155C623.981,502.155 620.946,502.834 619.375,504.171C617.826,505.509 617.04,508.14 617.04,512.025" style="fill:rgb(0,72,119);fill-rule:nonzero;"/>
        </g>
        <g transform="matrix(1,0,0,1,228.935,-406.297)">
            <path d="M681.186,515.634C681.186,511.644 680.082,508.565 677.896,506.421C675.71,504.256 672.611,503.174 668.599,503.174C667.304,503.174 666.667,502.622 666.667,501.539C666.667,500.796 666.943,500.308 667.474,500.075C668.005,499.842 669.194,499.735 671.019,499.735L680.465,499.863C682.63,499.863 684.54,499.82 686.259,499.735C688.87,499.566 692.436,499.268 697,498.844C703.134,498.25 708.016,497.953 711.604,497.953C725.656,497.953 736.927,501.561 745.396,508.757C753.866,515.952 758.111,525.525 758.111,537.476C758.111,552.886 752.423,565.155 741.023,574.282C732.66,580.969 723.236,584.302 712.75,584.302C711.009,584.302 707.507,584.132 702.243,583.792C699.25,583.622 696.193,583.537 693.052,583.537C685.665,583.537 680.762,583.77 678.321,584.237C676.41,584.62 675.137,584.81 674.457,584.81C673.503,584.81 673.036,584.195 673.036,582.964C673.036,582.115 673.545,581.584 674.585,581.372C677.132,580.884 678.873,579.823 679.807,578.188C680.719,576.575 681.186,573.794 681.186,569.847L681.186,515.634ZM695.451,512.301L695.451,566.853L696.193,572.499C697.552,577.317 702.667,579.716 711.54,579.716C721.134,579.716 728.755,576.384 734.379,569.74C740.004,563.096 742.828,554.117 742.828,542.804C742.828,530.959 739.453,521.302 732.682,513.851C725.911,506.4 717.165,502.664 706.445,502.664C702.052,502.664 699.059,503.237 697.446,504.405C696.109,505.318 695.451,507.95 695.451,512.301" style="fill:rgb(0,72,119);fill-rule:nonzero;"/>
        </g>
        <g transform="matrix(1,0,0,1,228.935,-405.405)">
            <path d="M792.158,559.105C792.158,566.98 792.88,572.308 794.344,575.088C795.787,577.891 798.653,579.483 802.92,579.907C804.661,580.077 805.531,580.735 805.531,581.902C805.531,583.07 804.83,583.664 803.408,583.664C802.962,583.664 802.113,583.6 800.86,583.473C797.295,583.176 793.856,583.027 790.545,583.027C787.764,583.027 785.301,583.112 783.158,583.261L777.936,583.749L773.775,584.11C772.608,584.238 771.802,584.301 771.335,584.301C769.849,584.301 769.106,583.728 769.106,582.603C769.106,581.69 769.531,581.117 770.359,580.862C773.181,579.992 775.134,578.824 776.217,577.36C777.299,575.895 777.83,573.645 777.83,570.631L777.83,564.73L777.894,562.31L777.894,517.417C777.894,512.449 777.278,509.117 776.026,507.44C773.988,504.659 770.677,502.983 766.05,502.409C764.351,502.155 763.502,501.433 763.502,500.244C763.502,499.055 764.075,498.461 765.243,498.461C765.71,498.461 766.453,498.525 767.493,498.631C770.677,498.95 774.179,499.098 778,499.098C782.182,499.098 787.255,498.864 793.219,498.398C800.224,497.846 805.064,497.57 807.717,497.57C815.592,497.57 822.13,499.714 827.309,504.023C832.488,508.332 835.078,513.744 835.078,520.261C835.078,524.378 833.931,528.114 831.618,531.49C829.325,534.843 826.163,537.412 822.13,539.153C821.302,539.492 820.92,539.895 820.962,540.404C821.005,540.808 821.217,541.318 821.577,541.891C821.96,542.464 822.512,543.44 823.255,544.82L828.795,554.647L835.184,566.025C837.392,569.867 839.345,572.541 841.064,574.049C842.783,575.534 844.799,576.277 847.113,576.277C848.068,576.277 848.96,576.192 849.788,576.023C850.276,575.917 850.743,575.853 851.147,575.853C851.889,575.853 852.271,576.32 852.271,577.275C852.271,578.485 850.574,579.843 847.177,581.372C843.78,582.9 840.766,583.664 838.134,583.664C833.889,583.664 829.962,581.563 826.353,577.381C822.767,573.199 818.097,565.261 812.365,553.607C810.137,549.001 808.29,546.093 806.847,544.862C805.382,543.652 803.026,543.037 799.757,543.037L795.894,543.037L793.092,543.525C792.476,543.864 792.158,544.862 792.158,546.518L792.158,559.105ZM792.158,510.56L792.158,532.105C792.158,534.758 792.497,536.435 793.177,537.136C793.877,537.836 795.511,538.197 798.08,538.197C805.467,538.197 810.052,538.069 811.814,537.794C813.576,537.518 815.231,536.69 816.781,535.268C819.816,532.53 821.323,528.752 821.323,523.933C821.323,517.671 819.285,512.492 815.189,508.416C811.092,504.32 805.891,502.282 799.566,502.282C796.743,502.282 794.812,502.876 793.75,504.065C792.689,505.232 792.158,507.397 792.158,510.56" style="fill:rgb(0,72,119);fill-rule:nonzero;"/>
        </g>
        <g transform="matrix(1,0,0,1,0,-546.821)">
            <path d="M642.778,752.731L720.004,611.59L797.23,752.731L642.778,752.731Z" style="fill:rgb(0,72,119);"/>
        </g>
        <g>
            <clipPath id="_clip1">
                <path d="M642.778,205.91L720.004,64.769L797.23,205.91L642.778,205.91Z"/>
            </clipPath>
            <g clip-path="url(#_clip1)">
                <g transform="matrix(131.948,0,0,131.948,639.745,163.033)">
                    <path d="M-0,0.286C0.247,0.237 1.015,-0.079 1,-0.079C0.984,-0.079 0.214,-0.286 0.214,-0.286L-0,0.286Z" style="fill:url(#_Linear2);"/>
                </g>
                <g transform="matrix(1,0,0,1,0,-622.872)">
                    <path d="M771.83,775.527L761.965,773.011L498.572,705.849L963.359,596.985L964.812,603.187L525.381,706.111L763.539,766.839L775.72,769.945L782.556,771.688C788.558,769.541 794.521,767.41 800.415,765.304C870.111,740.401 915.034,806.292 915.034,806.292L919.764,813.247L782.868,778.341C700.022,807.971 611.279,839.916 604.086,843.387L601.318,837.651C608.278,834.291 691.367,804.325 771.83,775.527ZM904.057,802.669C890.512,787.081 853.677,753.037 802.558,771.302L793.6,774.504L904.057,802.669Z" style="fill:white;"/>
                </g>
            </g>
        </g>
    </g>
    <defs>
        <linearGradient id="_Linear2" x1="0" y1="0" x2="1" y2="0" gradientUnits="userSpaceOnUse" gradientTransform="matrix(1,0,0,-1,0,-3.78937e-05)"><stop offset="0" style="stop-color:rgb(0,125,197);stop-opacity:1"/><stop offset="0.49" style="stop-color:rgb(0,174,239);stop-opacity:1"/><stop offset="1" style="stop-color:rgb(0,149,218);stop-opacity:1"/></linearGradient>
    </defs>
</svg>
